<svg width="527" height="333" viewBox="0 0 527 333" fill="none" xmlns="http://www.w3.org/2000/svg">
<path d="M277.915 63.4814C273.292 63.7378 268.741 65.6316 265.208 69.1641C257.591 76.7815 257.591 89.1311 265.208 96.7484C269.017 100.557 274.008 102.461 279.001 102.461C283.992 102.461 288.985 100.557 292.793 96.7484C296.324 93.216 298.219 88.6653 298.475 84.0415L277.915 63.4814ZM273.529 89.473H269.666L273.761 82.6478L275.64 85.7787L273.529 89.473ZM275.4 89.473L281.888 78.1203L288.376 89.473H275.4ZM294.319 82.1834C293.07 81.9674 291.847 81.6177 290.661 81.1371C288.445 80.2378 286.454 78.9167 284.747 77.2097C282.916 75.3784 281.533 73.2306 280.636 70.8259C280.249 69.7838 279.961 68.7192 279.773 67.6373L294.319 82.1834ZM295.375 90.1511C294.483 92.1823 293.227 94.0154 291.643 95.5993C289.936 97.3063 287.946 98.6279 285.73 99.5267C283.586 100.396 281.324 100.836 279.001 100.836C276.677 100.836 274.414 100.396 272.271 99.5267C270.054 98.6279 268.065 97.3063 266.358 95.5993C264.651 93.8917 263.328 91.9022 262.43 89.6853C261.561 87.5428 261.12 85.2792 261.12 82.9565C261.12 80.6332 261.56 78.3695 262.43 76.2271C263.328 74.0103 264.651 72.0207 266.358 70.3131C267.941 68.7292 269.774 67.4743 271.805 66.5827C273.551 65.8159 275.393 65.3383 277.294 65.1581L277.924 65.7886C278.142 69.283 279.296 72.7303 281.386 75.7222L276.563 84.161L273.761 79.4883L266.795 91.0986H272.6H280.727H291.176L284.253 78.9834C287.648 82.081 291.871 83.7637 296.167 84.0319L296.799 84.6636C296.619 86.5633 296.141 88.406 295.375 90.1511Z" fill="#FFC000" fill-opacity="0.38" style="mix-blend-mode:multiply"/>
<path d="M445.346 55.6855L435.825 66.8321L434.958 67.8479L425.437 78.9944L445.831 96.4129L455.352 85.2664L456.219 84.2506L465.74 73.1041L445.346 55.6855ZM445.689 94.6094L427.24 78.8525L435.93 68.6784L454.378 84.4352L445.689 94.6094ZM436.798 67.6626L445.488 57.4884L463.936 73.2453L455.246 83.4194L436.798 67.6626L436.798 67.6626Z" fill="white" fill-opacity="0.5"/>
<path d="M447.736 66.8603L448.159 64.3285L442.108 66.3589L444.189 68.1367L447.103 70.6258L450.847 73.8233L452.496 65.1513L447.736 66.8603ZM444.655 66.8525L446.549 66.2139L446.357 67.3589L445.574 67.6375L444.655 66.8525ZM446.693 68.5932L450.824 67.1096L450.005 71.422L446.693 68.5932Z" fill="white" fill-opacity="0.5"/>
<path d="M449.536 74.3799L441.765 67.743C441.499 67.5157 441.093 67.5477 440.864 67.8166C440.637 68.0819 440.669 68.4881 440.935 68.7154L448.705 75.3523C448.974 75.5819 449.376 75.5464 449.603 75.281C449.833 75.0121 449.805 74.6095 449.536 74.3799Z" fill="white" fill-opacity="0.5"/>
<path d="M432.225 78.9126C431.959 78.6854 431.555 78.7142 431.326 78.983C431.096 79.2519 431.131 79.6546 431.397 79.8818C431.666 80.1115 432.069 80.0831 432.299 79.8142C432.529 79.5453 432.494 79.1423 432.225 78.9126Z" fill="white" fill-opacity="0.5"/>
<path d="M434.166 80.571C433.901 80.3444 433.498 80.3731 433.268 80.642C433.038 80.9109 433.073 81.3135 433.339 81.5402C433.608 81.7698 434.011 81.7414 434.24 81.4725C434.47 81.2036 434.435 80.8006 434.166 80.571Z" fill="white" fill-opacity="0.5"/>
<path d="M436.112 82.2322C435.843 82.0026 435.44 82.0313 435.21 82.3002C434.981 82.5691 435.016 82.9717 435.285 83.2014C435.55 83.428 435.953 83.3996 436.183 83.1307C436.412 82.8618 436.378 82.4588 436.112 82.2322Z" fill="white" fill-opacity="0.5"/>
<path d="M438.053 83.8907C437.784 83.661 437.38 83.6898 437.151 83.9586C436.921 84.2275 436.956 84.6302 437.225 84.8599C437.49 85.0858 437.893 85.0575 438.122 84.7886C438.352 84.5196 438.317 84.1167 438.053 83.8907Z" fill="white" fill-opacity="0.5"/>
<path d="M439.996 85.5496C439.727 85.32 439.326 85.3511 439.097 85.62C438.867 85.8889 438.899 86.2891 439.168 86.5188C439.437 86.7484 439.836 86.7164 440.065 86.4475C440.295 86.1786 440.265 85.7792 439.996 85.5496Z" fill="white" fill-opacity="0.5"/>
<path d="M437.566 81.7923L441.309 84.9898L442.956 76.321L438.195 78.0303L438.621 75.495L432.57 77.5254L434.651 79.3031L437.566 81.7923L437.566 81.7923ZM440.464 82.5917L437.152 79.7629L441.283 78.2797L440.464 82.5917ZM435.114 78.0223L437.008 77.3839L436.819 78.5255L436.033 78.8072L435.114 78.0223L435.114 78.0223Z" fill="white" fill-opacity="0.5"/>
<path d="M459.488 76.2039C459.46 75.8531 459.151 75.5893 458.8 75.6169L455.616 75.8708L455.516 74.5968C455.488 74.2459 455.18 73.9822 454.829 74.0098C454.478 74.0374 454.217 74.3426 454.242 74.697L454.392 76.6045C454.422 76.9577 454.728 77.219 455.079 77.1914L458.901 76.891C459.252 76.8634 459.515 76.5547 459.488 76.2039Z" fill="white" fill-opacity="0.5"/>
<path d="M444.922 87.6912C444.953 88.0445 445.256 88.309 445.61 88.2781L445.612 88.2806L446.884 88.1779L446.984 89.4519C447.011 89.8027 447.32 90.0664 447.671 90.0388C448.022 90.0112 448.283 89.7057 448.258 89.3517L448.155 88.0808L449.429 87.9806C449.78 87.953 450.043 87.6442 450.016 87.2938C449.988 86.943 449.679 86.6793 449.328 86.7069L448.055 86.8068L447.957 85.5355L447.954 85.5331C447.927 85.1823 447.621 84.9211 447.267 84.9462C446.916 84.9734 446.653 85.2822 446.68 85.633L446.781 86.9071L445.509 87.0041C445.156 87.0349 444.895 87.3404 444.922 87.6912Z" fill="white" fill-opacity="0.5"/>
<path d="M422.352 197.011L423.125 195.073L423.383 194.427L423.641 193.782C421.876 193.077 421.019 191.055 421.73 189.274C422.44 187.493 424.454 186.617 426.219 187.321L426.477 186.675L426.735 186.029L427.508 184.091L425.997 173.003L417.925 172.778L417.659 177.165L402.938 171.29L395.718 189.378L410.44 195.253L407.613 198.619L413.622 204.012L422.352 197.011ZM409.534 198.475L411.491 196.147L412.732 194.67L410.955 193.961L397.515 188.597L403.703 173.092L417.143 178.457L418.919 179.165L419.036 177.241L419.221 174.204L424.788 174.36L426.091 183.923L425.379 185.706C423.307 185.523 421.267 186.715 420.449 188.763C419.632 190.812 420.291 193.08 421.92 194.374L421.209 196.157L413.679 202.196L409.534 198.475Z" fill="#FFC000" fill-opacity="0.38" style="mix-blend-mode:multiply"/>
<path d="M411.626 184.052L414.062 183.647L410.365 178.748L409.383 181.208L408.008 184.654L406.24 189.084L414.638 187.87L411.626 184.052ZM410.734 181.54L411.575 182.654L410.644 182.808L410.368 182.458L410.734 181.54L410.734 181.54ZM409.774 183.946L412.058 186.84L408.408 187.368L409.774 183.946Z" fill="#FFC000" fill-opacity="0.38" style="mix-blend-mode:multiply"/>
<g clip-path="url(#clip0)">
<path d="M151.465 327.487L141.746 317.408L149.111 309.769C150.579 308.247 150.579 305.779 149.111 304.257C148.377 303.496 147.415 303.115 146.453 303.115C145.492 303.115 144.529 303.496 143.795 304.257L136.43 311.895L126.711 301.816L121.395 307.328L131.114 317.408L122.647 326.188V331.701H127.963L136.43 322.92L146.149 333L151.465 327.487ZM140.859 316.489L139.534 315.115L145.128 309.314L146.453 310.688L140.859 316.489ZM144.681 305.175C145.155 304.685 145.783 304.414 146.453 304.414C147.122 304.414 147.752 304.685 148.225 305.175C149.202 306.189 149.202 307.838 148.225 308.851L147.339 309.769L143.795 306.094L144.681 305.175ZM142.909 307.013L144.242 308.395L138.649 314.196L137.315 312.814L142.909 307.013ZM126.711 303.654L128.456 305.464L127.57 306.382C127.325 306.636 127.325 307.048 127.57 307.301C127.815 307.555 128.211 307.555 128.456 307.301C128.456 307.301 128.456 307.301 128.457 307.3L129.342 306.382L131.114 308.22L130.228 309.139C129.983 309.393 129.983 309.804 130.228 310.058C130.472 310.311 130.87 310.311 131.114 310.058C131.114 310.057 131.114 310.057 131.114 310.057L132 309.139L133.772 310.977L132.887 311.894C132.887 311.894 132.886 311.895 132.886 311.895C132.642 312.149 132.642 312.56 132.886 312.814C133.131 313.068 133.527 313.068 133.772 312.814V312.814L134.658 311.895L136.43 313.733L135.544 314.651C135.299 314.906 135.299 315.317 135.544 315.57C135.788 315.824 136.185 315.824 136.43 315.57L137.315 314.651L139.087 316.489L138.202 317.408C137.957 317.662 137.957 318.073 138.202 318.327C138.446 318.58 138.843 318.58 139.087 318.327C139.088 318.326 139.088 318.326 139.088 318.326L139.974 317.408L141.746 319.246L140.859 320.164V320.164C140.615 320.418 140.615 320.829 140.859 321.083C141.104 321.337 141.501 321.337 141.746 321.083L142.631 320.164L144.403 322.002L143.518 322.92C143.273 323.174 143.273 323.586 143.518 323.839C143.762 324.093 144.158 324.093 144.403 323.839C144.403 323.839 144.403 323.839 144.403 323.839L145.289 322.92L147.061 324.758L146.176 325.676L146.175 325.677C145.93 325.93 145.93 326.342 146.175 326.596C146.42 326.849 146.817 326.849 147.061 326.596L147.947 325.677L149.693 327.487L146.149 331.162L123.167 307.328L126.711 303.654ZM123.9 330.401V329.325L124.939 330.401H123.9ZM127.444 330.401H126.71L123.9 327.487V326.727L132 318.327L133.333 319.709L127.081 326.192C126.836 326.446 126.836 326.857 127.081 327.111C127.325 327.365 127.722 327.365 127.967 327.111L134.219 320.628L135.544 322.002L127.444 330.401Z" fill="white"/>
</g>
<g clip-path="url(#clip1)">
<path d="M369.752 39.0362L360.033 28.9567L367.399 21.3182C368.867 19.7961 368.867 17.3279 367.399 15.8057C366.664 15.0444 365.703 14.6638 364.741 14.6638C363.779 14.6638 362.817 15.0444 362.082 15.8057L354.717 23.4442L344.998 13.3647L339.682 18.8772L349.401 28.9567L340.935 37.7367V43.2497H346.251L354.717 34.4692L364.436 44.5487L369.752 39.0362ZM359.147 28.0379L357.822 26.6637L363.416 20.8629L364.741 22.2371L359.147 28.0379ZM362.969 16.7241C363.442 16.2335 364.071 15.9632 364.741 15.9632C365.41 15.9632 366.039 16.2335 366.513 16.7241C367.489 17.7376 367.489 19.3864 366.513 20.3994L365.627 21.3182L362.082 17.6429L362.969 16.7241ZM361.197 18.5617L362.529 19.944L356.936 25.7448L355.603 24.363L361.197 18.5617ZM344.998 15.2024L346.744 17.0125L345.857 17.9313C345.613 18.1849 345.613 18.5965 345.857 18.8501C346.102 19.1037 346.499 19.1037 346.744 18.8501C346.744 18.8501 346.744 18.8496 346.745 18.8492L347.629 17.9313L349.401 19.769L348.516 20.6878C348.271 20.9414 348.271 21.353 348.516 21.6066C348.76 21.8602 349.157 21.8602 349.401 21.6066C349.401 21.6061 349.401 21.6061 349.401 21.6061L350.288 20.6878L352.06 22.5255L351.174 23.4433C351.174 23.4433 351.173 23.4438 351.173 23.4443C350.929 23.6979 350.929 24.109 351.173 24.3626C351.418 24.6167 351.815 24.6167 352.06 24.3626V24.3631L352.945 23.4443L354.717 25.2814L353.832 26.2002C353.587 26.4543 353.587 26.8654 353.832 27.1191C354.076 27.3727 354.472 27.3727 354.717 27.1191L355.603 26.2002L357.375 28.0379L356.489 28.9567C356.244 29.2103 356.244 29.6219 356.489 29.8755C356.733 30.1292 357.131 30.1292 357.375 29.8755C357.376 29.8751 357.376 29.8751 357.376 29.8751L358.261 28.9567L360.033 30.7944L359.147 31.7127V31.7132C358.903 31.9668 358.903 32.3779 359.147 32.632C359.392 32.8857 359.788 32.8857 360.033 32.632L360.919 31.7132L362.691 33.5509L361.805 34.4692C361.56 34.7233 361.56 35.1344 361.805 35.388C362.049 35.6417 362.446 35.6421 362.691 35.388C362.691 35.388 362.691 35.388 362.691 35.3876L363.576 34.4692L365.348 36.3069L364.464 37.2252L364.463 37.2257C364.218 37.4793 364.218 37.8909 364.463 38.1445C364.708 38.3981 365.104 38.3981 365.348 38.1445L366.235 37.2257L367.98 39.0363L364.436 42.7111L341.454 18.8772L344.998 15.2024ZM342.187 41.9502V40.8739L343.226 41.9502H342.187ZM345.731 41.9502H344.997L342.187 39.0362V38.2754L350.288 29.8755L351.62 31.2578L345.369 37.741C345.124 37.9946 345.124 38.4062 345.369 38.6599C345.613 38.9135 346.009 38.9135 346.254 38.6599L352.507 32.1767L353.832 33.5504L345.731 41.9502Z" fill="#FFC000" fill-opacity="0.38" style="mix-blend-mode:multiply"/>
</g>
<path d="M363.992 245.672L358.404 251.084C358.147 251.333 358.141 251.743 358.389 252C358.639 252.257 359.049 252.264 359.306 252.015L364.894 246.603C365.152 246.354 365.158 245.944 364.908 245.686C364.66 245.429 364.249 245.422 363.992 245.672Z" fill="#FFC000" fill-opacity="0.38" style="mix-blend-mode:multiply"/>
<path d="M357.501 250.151L359.364 248.348C359.621 248.098 359.628 247.688 359.379 247.431C359.13 247.174 358.72 247.168 358.463 247.417L356.6 249.221C356.343 249.47 356.336 249.88 356.585 250.137C356.834 250.394 357.244 250.4 357.501 250.151Z" fill="#FFC000" fill-opacity="0.38" style="mix-blend-mode:multiply"/>
<path d="M370.95 236.631L368.71 236.032L370.017 241.642L371.792 239.924L374.275 237.519L377.468 234.426L369.818 232.208L370.95 236.631ZM370.76 239.118L370.463 237.842L371.317 238.07L371.421 238.477L370.76 239.118ZM372.494 237.438L371.637 234.086L374.961 235.049L372.494 237.438Z" fill="#FFC000" fill-opacity="0.38" style="mix-blend-mode:multiply"/>
<path d="M367.138 220.965L345.717 241.711C345.46 241.96 345.453 242.371 345.702 242.628L358.33 255.667C358.579 255.924 358.99 255.93 359.247 255.681L380.667 234.935C380.924 234.687 380.931 234.276 380.682 234.019L368.054 220.98C367.805 220.723 367.394 220.717 367.138 220.965ZM366.66 223.233L362.765 237.557C362.734 237.671 362.554 237.845 362.439 237.872L347.995 241.31L366.66 223.233ZM358.81 254.299L347.61 242.735L362.739 239.133C363.026 239.065 363.306 238.898 363.534 238.677C363.763 238.456 363.939 238.181 364.016 237.897L368.097 222.888L379.299 234.455L358.81 254.299Z" fill="#FFC000" fill-opacity="0.38" style="mix-blend-mode:multiply"/>
<path d="M319.636 14.1745C319.636 6.34588 313.32 0 305.528 0C302.959 0 300.55 0.690351 298.475 1.89664C296.4 0.690434 293.991 0 291.422 0C283.63 0 277.314 6.34588 277.314 14.1745C277.314 19.4634 280.197 24.0748 284.47 26.5107C285.308 33.5347 291.258 38.9799 298.475 38.9799C305.692 38.9799 311.642 33.5347 312.48 26.5107C316.753 24.0748 319.636 19.4634 319.636 14.1745ZM286.407 27.4263C287.966 28.0219 289.655 28.3489 291.422 28.3489C293.991 28.3489 296.4 27.6586 298.475 26.4523C300.55 27.6585 302.959 28.3489 305.528 28.3489C307.295 28.3489 308.984 28.0219 310.543 27.4263C310.382 28.1796 310.15 28.9167 309.85 29.6324C309.228 31.1092 308.337 32.4361 307.203 33.5756C306.069 34.715 304.749 35.6097 303.279 36.2346C301.758 36.8809 300.142 37.2086 298.475 37.2086C296.808 37.2086 295.192 36.881 293.67 36.2346C292.201 35.6098 290.881 34.715 289.747 33.5756C288.613 32.4361 287.722 31.1092 287.1 29.6324C286.799 28.9167 286.568 28.1796 286.407 27.4263ZM310.805 25.3901C310.649 25.4641 310.491 25.5354 310.333 25.6035C308.812 26.2498 307.195 26.5775 305.528 26.5775C303.861 26.5775 302.245 26.2499 300.725 25.6035C300.522 25.5173 300.323 25.4257 300.126 25.3297C303.307 22.8199 305.387 18.9663 305.52 14.6196C306.118 15.0381 306.681 15.5105 307.203 16.0354C308.337 17.1748 309.228 18.5017 309.85 19.9779C310.493 21.506 310.818 23.1301 310.818 24.8055C310.818 25.0014 310.814 25.1961 310.805 25.3901ZM303.751 13.5898C303.76 13.7839 303.765 13.9785 303.765 14.1745C303.765 15.8498 303.44 17.474 302.796 19.0014C302.174 20.4782 301.284 21.8051 300.15 22.9445C299.63 23.4675 299.07 23.938 298.475 24.3546C297.88 23.938 297.32 23.4675 296.8 22.9445C295.666 21.8051 294.776 20.4782 294.153 19.0014C293.51 17.474 293.185 15.8498 293.185 14.1745C293.185 13.9785 293.19 13.7839 293.199 13.5898C293.354 13.5158 293.512 13.4445 293.67 13.3764C295.192 12.7301 296.808 12.4024 298.475 12.4024C300.142 12.4024 301.758 12.7301 303.28 13.3764C303.438 13.4445 303.596 13.5158 303.751 13.5898ZM298.475 10.631C296.709 10.631 295.019 10.9581 293.461 11.5537C293.623 10.8004 293.853 10.0632 294.154 9.34757C294.776 7.87077 295.666 6.5438 296.8 5.40437C297.32 4.88138 297.88 4.41096 298.475 3.99435C299.07 4.41096 299.63 4.88138 300.15 5.40437C301.284 6.5438 302.174 7.87069 302.797 9.34757C303.098 10.0632 303.329 10.8004 303.489 11.5537C301.931 10.958 300.24 10.631 298.475 10.631ZM291.43 14.6196C291.563 18.9663 293.643 22.8199 296.824 25.3297C296.627 25.4257 296.428 25.5173 296.225 25.6035C294.705 26.2498 293.089 26.5775 291.422 26.5775C289.755 26.5775 288.138 26.2499 286.617 25.6035C286.459 25.5354 286.301 25.464 286.145 25.3901C286.136 25.1961 286.132 25.0014 286.132 24.8055C286.132 23.1301 286.457 21.506 287.101 19.9786C287.722 18.5018 288.613 17.1748 289.747 16.0354C290.269 15.5105 290.832 15.0381 291.43 14.6196ZM296.824 3.01921C293.953 5.28378 291.98 8.64227 291.524 12.4693C287.372 14.8363 284.533 19.259 284.375 24.3604C283.777 23.9419 283.216 23.4695 282.694 22.9445C281.558 21.8051 280.669 20.4782 280.047 19.0014C279.404 17.474 279.077 15.8498 279.077 14.1745C279.077 12.4991 279.404 10.8749 280.047 9.34757C280.669 7.87077 281.558 6.5438 282.694 5.40437C283.828 4.26495 285.148 3.3702 286.617 2.74529C288.138 2.09904 289.755 1.77131 291.422 1.77131C293.089 1.77131 294.705 2.09896 296.225 2.74529C296.428 2.83167 296.627 2.92311 296.824 3.01921ZM316.903 9.34757C317.546 10.875 317.873 12.4991 317.873 14.1745C317.873 15.8498 317.546 17.474 316.903 19.0014C316.281 20.4782 315.392 21.8051 314.256 22.9445C313.735 23.4695 313.173 23.9419 312.575 24.3604C312.417 19.259 309.578 14.8363 305.426 12.4693C304.97 8.64227 302.997 5.2837 300.126 3.01921C300.323 2.9232 300.522 2.83167 300.725 2.74538C302.245 2.09913 303.861 1.77139 305.528 1.77139C307.195 1.77139 308.812 2.09904 310.333 2.74538C311.802 3.3702 313.122 4.26503 314.256 5.40446C315.392 6.5438 316.281 7.87077 316.903 9.34757Z" fill="#FFC000" fill-opacity="0.38" style="mix-blend-mode:multiply"/>
<path d="M197.182 45.5586L205.362 51.1863L208.868 53.5982L217.05 59.2265L237.514 31.9812L215.309 16.7058L197.182 45.5586ZM199.106 45.1606L200.617 42.7568L207.774 47.6802L206.166 50.0174L199.106 45.1606ZM207.335 50.8218L210.551 46.1474L211.72 46.9511L208.504 51.6256L207.335 50.8218ZM209.672 52.4294L211.28 50.0922L218.438 55.0161L216.732 57.2862L209.672 52.4294ZM235.491 32.3126L219.291 53.8809L212.084 48.9233L213.692 46.5861C213.914 46.2634 213.833 45.8223 213.51 45.6003C213.188 45.3783 212.746 45.4596 212.524 45.7823C212.746 45.4596 212.664 45.0179 212.341 44.7959C212.018 44.5739 211.577 44.6558 211.355 44.9785C211.577 44.6558 211.495 44.2141 211.173 43.9921C210.85 43.7701 210.408 43.8514 210.186 44.1741L208.578 46.5114L201.373 41.5544L215.723 18.713L235.491 32.3126Z" fill="white" fill-opacity="0.5"/>
<path d="M214.161 38.8735L220.348 35.8925L220.131 39.3724L228.016 35.7778L224.956 33.672L220.67 30.7242L215.161 26.9338L214.161 38.8735ZM225.147 35.5267L221.694 37.1006L221.813 35.1862L223.483 34.382L225.147 35.5268L225.147 35.5267ZM222.137 33.4557L215.782 36.5178L216.37 29.4886L222.137 33.4557Z" fill="white" fill-opacity="0.5"/>
<g clip-path="url(#clip2)">
<path d="M488.124 168.879C488.124 166.374 486.093 164.343 483.588 164.343C483.252 164.343 482.926 164.38 482.611 164.449L479.605 161.442L487.763 153.284C489.176 151.871 489.176 149.579 487.763 148.166C487.057 147.46 486.131 147.106 485.205 147.106C484.279 147.106 483.352 147.46 482.646 148.166L474.487 156.325L465.194 147.032C464.723 146.561 464.106 146.326 463.489 146.326C462.871 146.326 462.254 146.561 461.783 147.032C460.841 147.974 460.841 149.502 461.783 150.444L471.075 159.736L462.285 168.526V173.643H467.404L476.193 164.854L479.173 167.834C479.093 168.17 479.051 168.52 479.051 168.879C479.051 174.017 486.627 174.424 489.132 174.424C491.637 174.424 488.124 171.385 488.124 168.879ZM485.205 148.312C485.849 148.312 486.454 148.563 486.91 149.019C487.851 149.96 487.851 151.49 486.91 152.431L486.058 153.284L482.646 149.872L483.498 149.019C483.954 148.563 484.56 148.312 485.205 148.312ZM462.635 149.591C462.165 149.121 462.165 148.356 462.635 147.885C462.863 147.658 463.166 147.532 463.489 147.532C463.811 147.532 464.114 147.658 464.342 147.885L473.634 157.178L471.928 158.884L462.635 149.591ZM463.493 172.437V171.438L464.491 172.437H463.493ZM466.904 172.437H466.198L463.493 169.732V169.026L481.793 150.725L483.076 152.008L466.554 168.529C466.319 168.765 466.319 169.147 466.554 169.383C466.79 169.618 467.172 169.618 467.407 169.383L483.929 152.861L485.205 154.136L466.904 172.437ZM477.046 164.001L478.751 162.296L481.375 164.919C480.661 165.319 480.066 165.905 479.657 166.613L477.046 164.001ZM483.537 172.435C482.488 172.082 481.68 171.621 481.134 171.067C480.544 170.468 480.258 169.753 480.258 168.879C480.258 167.99 480.603 167.154 481.233 166.525C481.862 165.896 482.698 165.55 483.588 165.55C485.424 165.55 486.917 167.044 486.917 168.879C486.917 170.253 487.649 171.592 488.238 172.668C488.325 172.829 488.431 173.022 488.528 173.21C487.229 173.176 485.262 173.016 483.537 172.435Z" fill="#FFC000" fill-opacity="0.38" style="mix-blend-mode:multiply"/>
</g>
<g clip-path="url(#clip3)">
<path d="M388.336 126.348L441.676 141.461L444.922 130.007L391.581 114.893L388.336 126.348ZM440.308 139.012L436.547 137.945L437.089 136.036C437.237 135.509 436.931 134.961 436.404 134.811C435.877 134.662 435.329 134.968 435.178 135.495C435.179 135.496 435.179 135.496 435.179 135.496L434.638 137.405L430.82 136.323L431.361 134.415C431.51 133.887 431.204 133.338 430.676 133.189C430.15 133.04 429.6 133.345 429.452 133.873L428.911 135.782L425.093 134.701L425.633 132.791L425.634 132.791C425.783 132.264 425.476 131.715 424.95 131.566C424.422 131.417 423.874 131.723 423.725 132.25C423.724 132.251 423.724 132.251 423.724 132.251L423.183 134.159L419.365 133.077L419.906 131.168C420.055 130.641 419.749 130.093 419.222 129.943C418.695 129.794 418.147 130.101 417.997 130.627L417.456 132.537L413.638 131.455L414.179 129.546C414.329 129.018 414.022 128.471 413.495 128.321C412.968 128.171 412.419 128.477 412.27 129.005L411.729 130.915L407.911 129.832L408.452 127.922C408.602 127.396 408.295 126.847 407.768 126.698C407.24 126.548 406.692 126.855 406.543 127.382C406.543 127.382 406.543 127.382 406.543 127.382L406.002 129.291L402.184 128.209L402.725 126.3C402.874 125.773 402.568 125.224 402.04 125.075C401.514 124.926 400.965 125.232 400.815 125.759C400.815 125.759 400.815 125.759 400.816 125.76L400.275 127.668L396.456 126.587L396.996 124.679C396.997 124.678 396.998 124.678 396.998 124.678C397.147 124.15 396.841 123.602 396.313 123.452C395.786 123.302 395.237 123.609 395.088 124.136L394.547 126.045L390.786 124.979L392.949 117.343L442.472 131.375L440.308 139.012Z" fill="#FFC000" fill-opacity="0.38" style="mix-blend-mode:multiply"/>
</g>
<path d="M431.277 32.0565L415.633 12.6719C415.445 12.4398 415.104 12.4032 414.872 12.591L401.387 23.4739C401.155 23.6617 401.118 24.0028 401.306 24.2349L406.95 31.2284L404.015 32.7647L403.879 32.5961C403.691 32.364 403.35 32.3276 403.117 32.5154C402.885 32.7033 402.849 33.0443 403.036 33.2764L408.478 40.0194C408.665 40.2515 409.006 40.2882 409.239 40.1004C409.472 39.9126 409.508 39.5713 409.321 39.3392L409.184 39.17L411.305 36.6246L416.951 43.6194C417.138 43.8515 417.479 43.8882 417.712 43.7004L431.196 32.8174C431.429 32.6296 431.465 32.2885 431.277 32.0565ZM404.709 33.6246L407.64 32.0905L410.609 35.7674L408.491 38.3108L404.709 33.6246L404.709 33.6246ZM430.094 32.3145L419.138 41.1566L404.175 22.6166L415.131 13.7744L430.094 32.3145ZM409.971 33.2471L402.489 23.9771L403.332 23.2968L410.814 32.5669L418.295 41.8369L417.452 42.5172L409.971 33.2471Z" fill="#FFC000" fill-opacity="0.38" style="mix-blend-mode:multiply"/>
<path d="M410.732 33.3279C410.965 33.1401 411.001 32.7996 410.814 32.567C410.626 32.3343 410.285 32.2982 410.053 32.486C409.82 32.6738 409.783 33.0145 409.971 33.2472C410.159 33.4799 410.499 33.5158 410.732 33.3279Z" fill="#FFC000" fill-opacity="0.38" style="mix-blend-mode:multiply"/>
<path d="M414.466 16.3984L424.668 29.0387C424.668 29.0387 424.669 29.0393 424.669 29.0399C424.856 29.272 425.197 29.3087 425.43 29.1209C425.663 28.9331 425.699 28.5917 425.512 28.3597L415.309 15.7181C415.121 15.4848 414.78 15.4483 414.547 15.6362C414.314 15.824 414.278 16.1651 414.466 16.3984Z" fill="#FFC000" fill-opacity="0.38" style="mix-blend-mode:multiply"/>
<path d="M412.781 17.7595L418.222 24.5006C418.222 24.5012 418.222 24.5012 418.222 24.5012C418.41 24.7339 418.751 24.77 418.983 24.5822C419.216 24.3944 419.253 24.0539 419.065 23.8212L413.624 17.0795C413.435 16.8461 413.094 16.8094 412.862 16.9972C412.629 17.1851 412.593 17.5261 412.781 17.7595Z" fill="#FFC000" fill-opacity="0.38" style="mix-blend-mode:multiply"/>
<path d="M411.094 19.1198L418.575 28.3893C418.575 28.3899 418.575 28.3899 418.575 28.3899C418.763 28.6226 419.103 28.6587 419.336 28.4709C419.569 28.283 419.606 27.9423 419.418 27.7096L411.936 18.4396C411.748 18.2062 411.407 18.1695 411.174 18.3573C410.941 18.5454 410.905 18.8865 411.094 19.1198Z" fill="#FFC000" fill-opacity="0.38" style="mix-blend-mode:multiply"/>
<path d="M409.409 20.4799L414.17 26.3785C414.358 26.6118 414.699 26.6485 414.932 26.4607C415.165 26.2729 415.201 25.9318 415.012 25.6985L410.252 19.7997C410.064 19.5664 409.723 19.5299 409.49 19.7177C409.257 19.9055 409.221 20.2466 409.409 20.4799Z" fill="#FFC000" fill-opacity="0.38" style="mix-blend-mode:multiply"/>
<path d="M407.724 21.8403L416.566 32.7954L416.565 32.7957C416.754 33.029 417.095 33.0655 417.328 32.8776C417.56 32.6898 417.597 32.3488 417.408 32.1154L408.567 21.1603C408.378 20.9269 408.037 20.8902 407.804 21.078C407.572 21.2659 407.536 21.607 407.724 21.8403Z" fill="#FFC000" fill-opacity="0.38" style="mix-blend-mode:multiply"/>
<path d="M406.038 23.2009L408.758 26.5711C408.946 26.8044 409.287 26.8412 409.52 26.6533C409.753 26.4655 409.789 26.1242 409.601 25.8908L406.881 22.5206C406.692 22.2873 406.351 22.2506 406.119 22.4384C405.886 22.6264 405.85 22.9676 406.038 23.2009Z" fill="#FFC000" fill-opacity="0.38" style="mix-blend-mode:multiply"/>
<path d="M331.568 170.525L327.336 166.07L322.519 180.558L328.908 179.133L337.854 177.138L349.353 174.573L335.14 158.964L331.568 170.525ZM325.704 177.682L328.231 170.082L330.853 172.842L329.628 176.807L325.704 177.682ZM332.005 176.276L336.068 163.124L345.337 173.303L332.005 176.276Z" fill="white" fill-opacity="0.5"/>
<path d="M342.231 142.644L341.761 140.536C341.631 139.953 341.064 139.585 340.495 139.712C339.923 139.839 339.567 140.414 339.697 140.996L340.167 143.104L336.038 144.025L335.568 141.917C335.438 141.335 334.872 140.966 334.302 141.093C333.73 141.22 333.374 141.795 333.504 142.377L333.974 144.485L329.846 145.406L329.376 143.298C329.246 142.716 328.679 142.347 328.109 142.474C327.538 142.601 327.182 143.176 327.312 143.758L327.782 145.867L323.654 146.787L323.183 144.679C323.053 144.097 322.486 143.728 321.916 143.855C321.346 143.983 320.989 144.557 321.119 145.14L321.589 147.248L317.461 148.169L316.991 146.06C316.861 145.478 316.294 145.109 315.724 145.237C315.153 145.364 314.796 145.939 314.926 146.521L315.396 148.629L309.204 150.01L319.548 196.391L358.768 187.643L348.424 141.263L342.231 142.644ZM356.244 186.038L321.152 193.865L311.729 151.614L315.857 150.694L316.307 152.713C316.437 153.296 317.004 153.665 317.575 153.538C318.145 153.411 318.502 152.835 318.372 152.253L317.921 150.233L322.049 149.312L322.5 151.332C322.63 151.914 323.197 152.284 323.768 152.156C324.338 152.029 324.694 151.454 324.565 150.872L324.114 148.852L328.242 147.931L328.693 149.951C328.823 150.533 329.39 150.903 329.961 150.775C330.531 150.648 330.887 150.073 330.757 149.491L330.307 147.471L334.435 146.55L334.885 148.57C335.015 149.152 335.582 149.521 336.153 149.394C336.723 149.267 337.079 148.692 336.949 148.11L336.499 146.09L340.628 145.169L341.078 147.189C341.208 147.771 341.775 148.14 342.346 148.013C342.916 147.886 343.272 147.31 343.142 146.728L342.691 144.708L346.82 143.788L356.244 186.038Z" fill="white" fill-opacity="0.5"/>
<path d="M354.418 60.6245L329.096 82.9046C328.792 83.1721 328.762 83.6355 329.029 83.9395L344.529 101.555C344.796 101.859 345.259 101.888 345.564 101.621L354.7 93.5822L356.947 97.4647L356.727 97.6585C356.423 97.9259 356.393 98.3898 356.661 98.6938C356.928 98.9978 357.392 99.027 357.696 98.7595L366.503 91.0098C366.807 90.7423 366.837 90.2796 366.569 89.9756C366.302 89.6715 365.839 89.6412 365.535 89.9087L365.315 90.1024L361.748 87.3806L370.886 79.3407C371.19 79.0732 371.219 78.6105 370.951 78.3065L355.452 60.691C355.185 60.387 354.722 60.357 354.418 60.6245ZM358.069 96.4771L355.825 92.5997L360.629 88.3707L364.192 91.09L358.069 96.4771L358.069 96.4771ZM359.68 67.7148L356.377 70.6209L351.533 65.1162L354.836 62.2102L359.68 67.7148ZM357.346 71.722L360.648 68.8159L367.429 76.5223L364.126 79.4284L357.346 71.722ZM350.433 66.0847L363.025 80.3969L343.208 97.8332L330.615 83.5211L350.433 66.0847ZM357.256 89.3803L345.146 100.035L344.177 98.9343L356.287 88.2792L368.398 77.6234L369.367 78.7245L357.256 89.3803Z" fill="#FFC000" fill-opacity="0.38" style="mix-blend-mode:multiply"/>
<path d="M357.321 88.3456C357.053 88.0415 356.59 88.0116 356.286 88.2798C355.982 88.5473 355.952 89.01 356.22 89.314C356.487 89.618 356.951 89.6484 357.254 89.3809C357.559 89.1127 357.588 88.6496 357.321 88.3456Z" fill="#FFC000" fill-opacity="0.38" style="mix-blend-mode:multiply"/>
<path d="M349.861 84.1472L353.636 80.826L345.114 77.9063L346.152 82.9642L343.654 82.1672L344.828 88.5758L346.925 86.7304L349.861 84.1472ZM347.067 80.1254L350.77 81.3944L347.854 83.9599L347.067 80.1254ZM345.804 85.7634L345.537 84.3072L346.49 84.6113L346.585 85.0759L345.804 85.7634Z" fill="#FFC000" fill-opacity="0.38" style="mix-blend-mode:multiply"/>
<path d="M336.955 81.8477L335.854 82.8162L336.823 83.9173L337.924 82.9488L336.955 81.8477Z" fill="#FFC000" fill-opacity="0.38" style="mix-blend-mode:multiply"/>
<path d="M343.009 76.5208L341.909 77.4893L342.878 78.5904L343.978 77.6219L343.009 76.5208Z" fill="#FFC000" fill-opacity="0.38" style="mix-blend-mode:multiply"/>
<path d="M349.065 71.1929L347.963 72.1621L348.932 73.2632L350.034 72.294L349.065 71.1929Z" fill="#FFC000" fill-opacity="0.38" style="mix-blend-mode:multiply"/>
<path d="M352.94 75.5967L351.839 76.5659L352.807 77.6666L353.909 76.6974L352.94 75.5967Z" fill="#FFC000" fill-opacity="0.38" style="mix-blend-mode:multiply"/>
<path d="M356.816 80.0003L355.714 80.9695L356.683 82.0706L357.785 81.1014L356.816 80.0003Z" fill="#FFC000" fill-opacity="0.38" style="mix-blend-mode:multiply"/>
<path d="M344.706 90.6556L343.606 91.624L344.574 92.7251L345.675 91.7567L344.706 90.6556Z" fill="#FFC000" fill-opacity="0.38" style="mix-blend-mode:multiply"/>
<path d="M340.831 86.252L339.73 87.2205L340.698 88.3211L341.799 87.3527L340.831 86.252Z" fill="#FFC000" fill-opacity="0.38" style="mix-blend-mode:multiply"/>
<path d="M350.761 85.3287L349.66 86.2971L350.629 87.3982L351.729 86.4298L350.761 85.3287Z" fill="#FFC000" fill-opacity="0.38" style="mix-blend-mode:multiply"/>
<circle cx="496.159" cy="105.246" r="12.2625" stroke="#FFC000" stroke-opacity="0.58" stroke-width="10" style="mix-blend-mode:multiply"/>
<path d="M405.391 289.351V284.993H398.768V277.314H394.195V284.993H387.572V289.351H394.195V297.361H398.768V289.351H405.391Z" fill="white" fill-opacity="0.5"/>
<path d="M459.375 325.204C459.375 323.526 454.802 309.223 472.637 314.256C490.472 319.289 495.96 310.901 499.618 294.734C503.277 278.567 513.947 277.042 522.331 277.347" stroke="#FFC000" stroke-opacity="0.58" stroke-width="8" stroke-linecap="round" stroke-linejoin="round" style="mix-blend-mode:multiply"/>
<path d="M499.162 49.8718C498.573 50.1725 494.363 54.3359 492.949 47.1934C491.534 40.0509 487.608 39.6341 481.274 41.2513C474.94 42.8685 472.5 39.4082 471.111 36.42" stroke="#FFC000" stroke-opacity="0.58" stroke-width="8" stroke-linecap="round" stroke-linejoin="round" style="mix-blend-mode:multiply"/>
<circle cx="14.4783" cy="200.468" r="9.47826" stroke="white" stroke-width="10"/>
<defs>
<clipPath id="clip0">
<rect width="30.0702" height="31.1839" fill="white" transform="translate(121.395 301.816)"/>
</clipPath>
<clipPath id="clip1">
<rect width="30.0702" height="31.1839" fill="white" transform="translate(339.682 13.3647)"/>
</clipPath>
<clipPath id="clip2">
<rect width="28.9565" height="28.9565" fill="white" transform="translate(461.077 145.896)"/>
</clipPath>
<clipPath id="clip3">
<rect width="47.6206" height="47.6206" fill="white" transform="translate(407.449 160.574) rotate(-119.18)"/>
</clipPath>
</defs>
</svg>
